<svg viewBox="0 0 215.5 66.5474" xmlns="http://www.w3.org/2000/svg" xmlns:xlink="http://www.w3.org/1999/xlink" width="215.500046" height="66.547363" fill="none" customFrame="#000000">
	<defs>
		<g id="pixso_custom_effect_4">
			<effect x="0.000000" y="4.000000" visibility="visible" fill="rgb(0,0,0)" fill-opacity="0.25" effectType="dropShadow" stdDeviation="4" radius="0" />
		</g>
		<filter id="filter_4" width="215.500046" height="66.547363" x="0.000000" y="0.000000" filterUnits="userSpaceOnUse" customEffect="url(#pixso_custom_effect_4)" color-interpolation-filters="sRGB">
			<feFlood flood-opacity="0" result="BackgroundImageFix" />
			<feColorMatrix result="hardAlpha" in="SourceAlpha" type="matrix" values="0 0 0 0 0 0 0 0 0 0 0 0 0 0 0 0 0 0 127 0 " />
			<feOffset dx="0.000000" dy="4.000000" in="hardAlpha" />
			<feGaussianBlur stdDeviation="1.33333337" />
			<feComposite k2="-1" k3="1" in2="hardAlpha" operator="out" />
			<feColorMatrix type="matrix" values="0 0 0 0 0 0 0 0 0 0 0 0 0 0 0 0 0 0 0.25 0 " />
			<feBlend result="effect_dropShadow_1" in2="BackgroundImageFix" mode="normal" />
			<feBlend result="shape" in="SourceGraphic" in2="effect_dropShadow_1" mode="normal" />
		</filter>
		<clipPath id="clipPath_0">
			<rect width="209.000000" height="55.000000" x="6.500046" y="2.000000" fill="rgb(255,255,255)" />
		</clipPath>
		<g id="pixso_custom_effect_5">
			<effect x="0.000000" y="4.000000" visibility="visible" fill="rgb(0,0,0)" fill-opacity="0.25" effectType="dropShadow" stdDeviation="6" radius="0" />
		</g>
		<filter id="filter_5" width="150.250397" height="50.547363" x="60.000076" y="16.000000" filterUnits="userSpaceOnUse" customEffect="url(#pixso_custom_effect_5)" color-interpolation-filters="sRGB">
			<feFlood flood-opacity="0" result="BackgroundImageFix" />
			<feColorMatrix result="hardAlpha" in="SourceAlpha" type="matrix" values="0 0 0 0 0 0 0 0 0 0 0 0 0 0 0 0 0 0 127 0 " />
			<feOffset dx="0.000000" dy="4.000000" in="hardAlpha" />
			<feGaussianBlur stdDeviation="2" />
			<feComposite k2="-1" k3="1" in2="hardAlpha" operator="out" />
			<feColorMatrix type="matrix" values="0 0 0 0 0 0 0 0 0 0 0 0 0 0 0 0 0 0 0.25 0 " />
			<feBlend result="effect_dropShadow_1" in2="BackgroundImageFix" mode="normal" />
			<feBlend result="shape" in="SourceGraphic" in2="effect_dropShadow_1" mode="normal" />
		</filter>
		<g id="pixso_custom_effect_6">
			<effect x="0.000000" y="4.000000" visibility="visible" fill="rgb(0,0,0)" fill-opacity="0.25" effectType="dropShadow" stdDeviation="6" radius="0" />
		</g>
		<filter id="filter_6" width="62.693726" height="57.488525" x="0.000046" y="0.000000" filterUnits="userSpaceOnUse" customEffect="url(#pixso_custom_effect_6)" color-interpolation-filters="sRGB">
			<feFlood flood-opacity="0" result="BackgroundImageFix" />
			<feColorMatrix result="hardAlpha" in="SourceAlpha" type="matrix" values="0 0 0 0 0 0 0 0 0 0 0 0 0 0 0 0 0 0 127 0 " />
			<feOffset dx="0.000000" dy="4.000000" in="hardAlpha" />
			<feGaussianBlur stdDeviation="2" />
			<feComposite k2="-1" k3="1" in2="hardAlpha" operator="out" />
			<feColorMatrix type="matrix" values="0 0 0 0 0 0 0 0 0 0 0 0 0 0 0 0 0 0 0.25 0 " />
			<feBlend result="effect_dropShadow_1" in2="BackgroundImageFix" mode="normal" />
			<feBlend result="shape" in="SourceGraphic" in2="effect_dropShadow_1" mode="normal" />
		</filter>
	</defs>
	<g id="lingoiq_logo-footer" filter="url(#filter_4)" customFrame="url(#clipPath_0)">
		<rect id="lingoiq_logo-footer" width="209.000000" height="55.000000" x="6.500046" y="2.000000" />
		<g id="Group 2">
			<g id="Сочетание 1" filter="url(#filter_5)">
				<path id="Форма 1" d="M70.1573 46.9929C68.9207 46.9929 67.9188 46.5975 67.1513 45.8068C66.3838 45.0161 66 43.9837 66 42.7099L66 22.8102C66 21.9755 66.2772 21.2946 66.8315 20.7675C67.3857 20.2404 68.0892 19.9768 68.9421 19.9768C69.7522 19.9768 70.4131 20.2404 70.9248 20.7675C71.479 21.2946 71.7562 21.9755 71.7562 22.8102L71.7562 39.6129C71.7562 40.9307 72.3958 41.5897 73.675 41.5897L79.3672 41.5897C80.1347 41.5897 80.7529 41.8532 81.222 42.3804C81.7336 42.8636 81.9894 43.5006 81.9894 44.2913C81.9894 45.082 81.7336 45.7409 81.222 46.2681C80.7529 46.7513 80.1347 46.9929 79.3672 46.9929L70.1573 46.9929ZM88.7964 47.6518C87.9862 47.6518 87.3041 47.4102 86.7498 46.927C86.1954 46.4438 85.9183 45.8288 85.9183 45.082L85.9183 30.1243C85.9183 29.4214 86.1741 28.8284 86.6858 28.3452C87.2401 27.8181 87.9437 27.5545 88.7964 27.5545C89.6491 27.5545 90.3101 27.8181 90.7791 28.3452C91.2907 28.8284 91.5466 29.4435 91.5466 30.1902L91.5466 45.0161C91.5466 45.7629 91.2695 46.3999 90.7151 46.927C90.2035 47.4102 89.5639 47.6518 88.7964 47.6518ZM88.7964 24.2598C87.901 24.2598 87.1335 23.9743 86.4939 23.4032C85.8543 22.7883 85.5346 22.0195 85.5346 21.097C85.5346 20.2623 85.8543 19.5375 86.4939 18.9225C87.1335 18.3075 87.901 18 88.7964 18C89.6491 18 90.3741 18.3075 90.971 18.9225C91.6105 19.5375 91.9303 20.2623 91.9303 21.097C91.9303 22.0195 91.6105 22.7883 90.971 23.4032C90.3741 23.9743 89.6491 24.2598 88.7964 24.2598ZM112.775 47.6518C111.965 47.6518 111.283 47.4102 110.729 46.927C110.217 46.4438 109.961 45.8288 109.961 45.082L109.961 37.0431C109.961 35.4177 109.599 34.2536 108.874 33.5507C108.192 32.8478 107.339 32.4965 106.316 32.4965C105.25 32.4965 104.354 32.8478 103.63 33.5507C102.947 34.2536 102.521 35.0663 102.35 35.9888L102.35 44.8184C102.35 45.5652 102.073 46.2022 101.519 46.7293C101.007 47.2125 100.368 47.4542 99.6002 47.4542C98.7901 47.4542 98.1079 47.2125 97.5536 46.7293C96.9992 46.2462 96.7221 45.6311 96.7221 44.8843L96.7221 30.1243C96.7221 29.4214 96.978 28.8284 97.4896 28.3452C98.044 27.8181 98.7475 27.5545 99.6002 27.5545C100.282 27.5545 100.858 27.7522 101.327 28.1475C101.796 28.4989 102.116 28.9602 102.286 29.5313C103.438 27.9938 105.186 27.225 107.531 27.225C109.919 27.225 111.859 27.9498 113.351 29.3995C114.843 30.8491 115.59 33.1554 115.59 36.3182L115.59 45.2138C115.59 45.9167 115.313 46.5097 114.758 46.9929C114.247 47.4322 113.586 47.6518 112.775 47.6518ZM128.453 56.5474C127.258 56.5474 126.107 56.4156 124.999 56.152C123.891 55.9324 122.888 55.5809 121.993 55.0977C120.969 54.5266 120.458 53.6481 120.458 52.462C120.458 51.7153 120.714 51.0563 121.225 50.4852C121.737 49.9581 122.334 49.6945 123.016 49.6945C123.571 49.6945 124.06 49.8263 124.487 50.0899C125.17 50.4852 125.873 50.7707 126.598 50.9465C127.365 51.1222 128.112 51.2101 128.836 51.2101C130.456 51.2101 131.65 50.8366 132.418 50.0899C133.228 49.3431 133.633 48.3547 133.633 47.1247L133.633 45.6092C132.269 46.971 130.584 47.6518 128.58 47.6518C125.723 47.6518 123.421 46.7293 121.673 44.8843C119.967 42.9954 119.115 40.4914 119.115 37.3725C119.115 34.2536 119.946 31.7936 121.609 29.9925C123.315 28.1475 125.574 27.225 128.389 27.225C130.435 27.225 132.205 28.0377 133.697 29.6631C133.825 29.0481 134.124 28.5429 134.592 28.1475C135.104 27.7522 135.723 27.5545 136.447 27.5545C137.3 27.5545 137.982 27.8181 138.494 28.3452C139.006 28.8723 139.261 29.5313 139.261 30.322L139.261 47.2565C139.261 50.0679 138.302 52.3083 136.383 53.9776C134.508 55.6908 131.863 56.5474 128.453 56.5474ZM129.028 42.3145C130.307 42.3145 131.331 41.8533 132.098 40.9307C132.909 39.9643 133.313 38.7782 133.313 37.3725C133.313 35.9229 132.909 34.7587 132.098 33.8802C131.331 33.0017 130.307 32.5623 129.028 32.5623C127.706 32.5623 126.641 33.0017 125.83 33.8802C125.063 34.7587 124.679 35.9229 124.679 37.3725C124.679 38.7782 125.063 39.9643 125.83 40.9307C126.641 41.8533 127.706 42.3145 129.028 42.3145ZM152.58 47.6518C150.746 47.6518 149.062 47.2125 147.527 46.334C145.992 45.4554 144.756 44.2473 143.817 42.7099C142.922 41.1284 142.474 39.3493 142.474 37.3725C142.474 35.3518 142.922 33.5947 143.817 32.1011C144.756 30.5636 145.992 29.3776 147.527 28.5429C149.062 27.6643 150.746 27.225 152.58 27.225C154.455 27.225 156.14 27.6643 157.632 28.5429C159.167 29.3776 160.383 30.5636 161.278 32.1011C162.173 33.5947 162.621 35.3518 162.621 37.3725C162.621 39.3493 162.173 41.1284 161.278 42.7099C160.383 44.2473 159.167 45.4554 157.632 46.334C156.14 47.2125 154.455 47.6518 152.58 47.6518ZM152.58 42.3145C153.902 42.3145 154.967 41.8533 155.778 40.9307C156.63 39.9643 157.057 38.7782 157.057 37.3725C157.057 35.9229 156.63 34.7587 155.778 33.8802C154.967 33.0017 153.902 32.5623 152.58 32.5623C151.301 32.5623 150.213 33.0017 149.318 33.8802C148.465 34.7587 148.039 35.9229 148.039 37.3725C148.039 38.7782 148.465 39.9643 149.318 40.9307C150.213 41.8533 151.301 42.3145 152.58 42.3145Z" fill="rgb(255,255,255)" fill-rule="nonzero" />
				<path id="Форма 2" d="M170.006 47.6517C169.196 47.6517 168.513 47.3882 167.96 46.861C167.405 46.3339 167.128 45.6749 167.128 44.8842L167.128 22.8101C167.128 21.9754 167.405 21.2945 167.96 20.7674C168.513 20.2403 169.196 19.9767 170.006 19.9767C170.859 19.9767 171.541 20.2403 172.053 20.7674C172.606 21.2945 172.884 21.9754 172.884 22.8101L172.884 44.8842C172.884 45.7189 172.606 46.3998 172.053 46.9269C171.541 47.4101 170.859 47.6517 170.006 47.6517ZM200.861 49.6285C200.179 49.6285 199.581 49.3649 199.07 48.8378L196.767 46.3339C195.02 47.2124 193.122 47.6517 191.075 47.6517C188.56 47.6517 186.278 47.0368 184.232 45.8067C182.228 44.5328 180.629 42.8196 179.435 40.6671C178.284 38.5145 177.708 36.1424 177.708 33.5506C177.708 30.8709 178.284 28.4988 179.435 26.4342C180.629 24.3256 182.228 22.6783 184.232 21.4922C186.236 20.2622 188.517 19.6472 191.075 19.6472C193.633 19.6472 195.894 20.2622 197.855 21.4922C199.859 22.6783 201.415 24.3256 202.524 26.4342C203.675 28.4988 204.25 30.8709 204.25 33.5506C204.25 35.3517 203.974 37.043 203.419 38.6244C202.865 40.1619 202.098 41.5456 201.116 42.7757L202.843 44.423C203.526 45.1259 203.867 45.8507 203.867 46.5974C203.867 47.4321 203.633 48.0911 203.163 48.5742C202.482 49.2771 201.714 49.6285 200.861 49.6285ZM191.075 42.3803C191.673 42.3803 192.248 42.3144 192.802 42.1826L191.715 41.1283C191.033 40.5134 190.691 39.7446 190.691 38.8221C190.691 38.0314 190.926 37.3944 191.395 36.9112C191.993 36.2962 192.717 35.9887 193.569 35.9887C194.337 35.9887 194.977 36.2522 195.488 36.7794L197.215 38.7562C198.069 37.2626 198.494 35.5274 198.494 33.5506C198.494 31.0027 197.791 28.9162 196.384 27.2908C195.02 25.6654 193.25 24.8528 191.075 24.8528C188.859 24.8528 187.025 25.6654 185.575 27.2908C184.168 28.9162 183.464 31.0027 183.464 33.5506C183.464 36.0985 184.168 38.2071 185.575 39.8764C187.025 41.5456 188.859 42.3803 191.075 42.3803Z" fill="rgb(255,255,255)" fill-rule="nonzero" />
			</g>
			<g id="Сочетание 2" filter="url(#filter_6)">
				<path id="Форма 3" d="M56.6938 25.5867C56.6911 23.2873 56.0809 21.0318 54.9285 19.0626C53.7763 17.0932 52.1252 15.4843 50.1527 14.4085L50.1527 12.951C50.1536 10.6984 49.4799 8.50039 48.2237 6.65678C46.9674 4.81316 45.1898 3.41373 43.1331 2.6494C41.0764 1.88508 38.8409 1.79307 36.7316 2.38595C34.6222 2.97882 32.7419 4.2277 31.3469 5.96219C29.9519 4.2277 28.0715 2.97883 25.9623 2.38595C23.8529 1.79308 21.6174 1.88507 19.5607 2.64939C17.504 3.4137 15.7264 4.81311 14.4701 6.65672C13.2138 8.50032 12.5402 10.6983 12.5412 12.9509L12.5412 14.4085C10.5666 15.4817 8.91379 17.0898 7.76109 19.0597C6.60839 21.0294 5.99948 23.2859 6.00005 25.5861C6.00062 27.8861 6.61062 30.1424 7.7643 32.1115C8.91797 34.0808 10.5715 35.6881 12.5467 36.7602C12.5893 38.9932 13.2941 41.1592 14.5663 42.9676C15.8385 44.7758 17.6173 46.1399 19.6638 46.8763C21.7104 47.6129 23.9265 47.6867 26.0149 47.0879C28.1033 46.4891 29.9639 45.2463 31.3469 43.5265C32.7298 45.2463 34.5904 46.4891 36.6788 47.0879C38.7673 47.6867 40.9835 47.6129 43.03 46.8763C45.0765 46.1399 46.8552 44.7758 48.1275 42.9676C49.3997 41.1592 50.1045 38.9932 50.1471 36.7602C52.1214 35.6871 53.7742 34.0796 54.9277 32.1108C56.0812 30.142 56.6918 27.8864 56.6938 25.5867ZM23.1705 42.4343C21.9358 42.4326 20.7347 42.0203 19.7458 41.2586C18.7569 40.4969 18.033 39.4267 17.6821 38.2072C17.8753 38.2166 18.0693 38.2224 18.2647 38.2224L19.8999 38.2224C20.5505 38.2224 21.1744 37.9561 21.6344 37.4823C22.0945 37.0083 22.3528 36.3655 22.3528 35.6953C22.3528 35.0251 22.0945 34.3822 21.6344 33.9084C21.1744 33.4344 20.5505 33.1681 19.8999 33.1681L18.2647 33.1681C16.5286 33.1677 14.8486 32.5352 13.5215 31.3822C12.1943 30.2291 11.3054 28.63 11.0119 26.8672C10.7183 25.1045 11.039 23.2915 11.9173 21.7486C12.7955 20.2059 14.1748 19.0325 15.8114 18.436C16.2897 18.2618 16.7038 17.9391 16.9967 17.5125C17.2895 17.0858 17.4468 16.576 17.4468 16.0534L17.4471 12.951C17.4471 11.3871 18.05 9.88723 19.1233 8.78139C20.1968 7.67555 21.6526 7.0543 23.1705 7.0543C24.6885 7.0543 26.1443 7.67555 27.2176 8.78139C28.291 9.88723 28.894 11.3871 28.894 12.951L28.894 27.3092C28.425 27 27.9332 26.7292 27.4232 26.4991C27.1279 26.366 26.8102 26.2943 26.4881 26.2877C26.1659 26.2812 25.8456 26.3401 25.5456 26.4613C25.2456 26.5823 24.9716 26.7631 24.7394 26.9932C24.5072 27.2233 24.3213 27.4984 24.1923 27.8026C24.0633 28.1068 23.9938 28.4342 23.9876 28.7661C23.9814 29.0981 24.0388 29.4279 24.1565 29.737C24.2741 30.0461 24.4497 30.3282 24.6732 30.5672C24.8967 30.8064 25.1638 30.9978 25.4591 31.1306C26.6644 31.6726 27.6519 32.6255 28.2554 33.8293C28.859 35.0331 29.0419 36.4142 28.7734 37.7406C28.5048 39.067 27.8012 40.2576 26.7808 41.1124C25.7605 41.9672 24.4855 42.434 23.1705 42.4343ZM44.4291 33.1681L42.7938 33.1681C42.1433 33.1681 41.5194 33.4344 41.0594 33.9084C40.5994 34.3822 40.341 35.0251 40.341 35.6953C40.341 36.3655 40.5994 37.0083 41.0594 37.4823C41.5194 37.9561 42.1433 38.2224 42.7938 38.2224L44.4291 38.2224C44.6245 38.2224 44.8185 38.2166 45.0117 38.2072C44.7389 39.1578 44.2379 40.0223 43.5549 40.7205C42.872 41.4188 42.0292 41.9285 41.1045 42.2024C40.1798 42.4763 39.2029 42.5055 38.2643 42.2874C37.3257 42.0694 36.4556 41.611 35.7344 40.9548C35.0132 40.2987 34.4643 39.4657 34.1383 38.533C33.8123 37.6003 33.7199 36.5981 33.8694 35.6188C34.0189 34.6395 34.4056 33.715 34.9939 32.9305C35.5821 32.146 36.3527 31.527 37.2346 31.1306C37.53 30.9978 37.7971 30.8064 38.0206 30.5672C38.2441 30.3282 38.4197 30.0461 38.5373 29.737C38.6549 29.4279 38.7124 29.0981 38.7062 28.7661C38.7001 28.4342 38.6305 28.1068 38.5014 27.8026C38.3725 27.4984 38.1865 27.2233 37.9543 26.9932C37.7222 26.7631 37.4482 26.5823 37.1482 26.4613C36.8481 26.3401 36.5279 26.2812 36.2057 26.2877C35.8836 26.2943 35.5658 26.366 35.2707 26.4991C34.7605 26.7292 34.2687 27 33.7999 27.3092L33.7999 12.951C33.7999 12.1766 33.9479 11.4098 34.2355 10.6944C34.5232 9.979 34.9447 9.32896 35.4762 8.78142C36.0077 8.23386 36.6386 7.79952 37.3331 7.50319C38.0275 7.20686 38.7717 7.05435 39.5234 7.05435C40.2749 7.05436 41.0192 7.20689 41.7136 7.50322C42.408 7.79958 43.0389 8.23392 43.5705 8.78149C44.1019 9.32905 44.5235 9.9791 44.8111 10.6945C45.0987 11.4099 45.2468 12.1767 45.2468 12.9511L45.247 16.0534C45.247 16.576 45.4042 17.0858 45.6971 17.5125C45.9901 17.9391 46.4042 18.2618 46.8823 18.436C48.5189 19.0325 49.8982 20.2059 50.7765 21.7486C51.6547 23.2915 51.9754 25.1045 51.6819 26.8672C51.3883 28.63 50.4995 30.2291 49.1724 31.3822C47.8452 32.5352 46.1652 33.1677 44.4291 33.1681ZM25.6234 18.0053C25.621 20.2386 24.7587 22.3797 23.2259 23.959C21.693 25.5383 19.6148 26.4265 17.4471 26.429C16.7964 26.429 16.1726 26.1628 15.7125 25.6889C15.2525 25.2149 14.9941 24.5722 14.9941 23.902C14.9941 23.2317 15.2525 22.5889 15.7125 22.115C16.1726 21.641 16.7964 21.3748 17.4471 21.3748C18.3141 21.3737 19.1454 21.0184 19.7586 20.3868C20.3717 19.755 20.7166 18.8986 20.7176 18.0053L20.7176 16.3205C20.7176 15.6503 20.976 15.0075 21.436 14.5336C21.8961 14.0596 22.5199 13.7934 23.1705 13.7934C23.8211 13.7934 24.445 14.0596 24.905 14.5336C25.365 15.0075 25.6234 15.6503 25.6234 16.3205L25.6234 18.0053ZM47.6997 23.902C47.6997 24.5722 47.4412 25.2149 46.9813 25.6889C46.5213 26.1628 45.8973 26.429 45.2468 26.429C43.0791 26.4265 41.0007 25.5383 39.4679 23.959C37.935 22.3797 37.0729 20.2386 37.0704 18.0053L37.0704 16.3205C37.0704 15.6503 37.3288 15.0075 37.7888 14.5336C38.2489 14.0596 38.8727 13.7934 39.5233 13.7934C40.1739 13.7934 40.7977 14.0596 41.2578 14.5336C41.7178 15.0075 41.9762 15.6503 41.9762 16.3205L41.9762 18.0053C41.9772 18.8986 42.3222 19.755 42.9352 20.3868C43.5484 21.0184 44.3796 21.3737 45.2468 21.3748C45.8973 21.3748 46.5213 21.641 46.9813 22.115C47.4412 22.5889 47.6997 23.2317 47.6997 23.902Z" fill="rgb(255,255,255)" fill-rule="nonzero" />
			</g>
		</g>
	</g>
</svg>
