<svg viewBox="0 0 32 32" xmlns="http://www.w3.org/2000/svg" xmlns:xlink="http://www.w3.org/1999/xlink" width="32.000000" height="32.000000" fill="none">
	<rect id="youtube" width="32.000000" height="32.000000" x="0.000000" y="0.000000" />
	<g id="Group 3">
		<path id="Vector 3" d="M31.331 8.24805C30.963 6.86205 29.879 5.77105 28.502 5.40005C26.006 4.72705 16 4.72705 16 4.72705C16 4.72705 5.993 4.72705 3.498 5.40005C2.121 5.77005 1.037 6.86205 0.669 8.24805C0 10.7601 0 16 0 16C0 16 0 21.2411 0.669 23.752C1.037 25.1381 2.121 26.229 3.498 26.599C5.994 27.272 16 27.272 16 27.272C16 27.272 26.007 27.272 28.502 26.599C29.879 26.229 30.963 25.1371 31.331 23.752C32 21.24 32 16 32 16C32 16 32 10.76 31.331 8.24805L31.331 8.24805ZM12.727 20.758L12.727 11.2421L21.091 16L12.727 20.758L12.727 20.758Z" fill="rgb(255,255,255)" fill-rule="nonzero" />
	</g>
</svg>
