<svg viewBox="0 0 124.5 5.00098" xmlns="http://www.w3.org/2000/svg" xmlns:xlink="http://www.w3.org/1999/xlink" width="124.500061" height="5.000977" fill="none" customFrame="#000000">
	<path id="line-b" d="M7.19668e-06 0.000333309L2.65172 0.000276327C4.31838 0.000240326 5.15174 0.833556 5.15177 2.50022C5.15181 4.16689 4.31849 5.00024 2.65182 5.00028L0.000114874 5.00033L7.19668e-06 0.000333309ZM12.2205 0.000123262L18.1046 6.03199e-05C19.7713 4.24385e-05 20.6046 0.833367 20.6046 2.50003C20.6046 4.1667 19.7713 5.00004 18.1046 5.00006L12.2206 5.00012C10.5539 5.00014 9.72055 4.16682 9.72054 2.50015C9.72052 0.833483 10.5538 0.000141144 12.2205 0.000123262ZM27.5237 5.72205e-06L33.321 9.53674e-07C34.9877 -2.38419e-07 35.821 0.833332 35.821 2.5C35.821 4.16667 34.9877 5 33.321 5L27.5237 5.00001C25.8571 5.00001 25.0237 4.16667 25.0237 2.50001C25.0237 0.833341 25.8571 6.91414e-06 27.5237 5.72205e-06ZM42.6855 4.31538e-05L48.5 0.000103235C50.1666 0.000120401 51 0.833462 50.9999 2.50013C50.9999 4.1668 50.1666 5.00012 48.4999 5.0001L42.6854 5.00004C41.0187 5.00003 40.1854 4.16668 40.1854 2.50002C40.1855 0.833351 41.0188 2.59876e-05 42.6855 4.31538e-05ZM58.0061 0.000264406L61.0001 0.000333309L63.9942 0.000471115C65.6609 0.000547886 66.4942 0.83392 66.4941 2.50059C66.494 4.16725 65.6606 5.00055 63.994 5.00047L61 5.00033L58.006 5.00026C56.3393 5.00023 55.506 4.16687 55.506 2.50021C55.5061 0.83354 56.3394 0.000226021 58.0061 0.000264406ZM73.5002 0.000793695L79.3147 0.00091362C80.9814 0.000947952 81.8147 0.834298 81.8147 2.50097C81.8146 4.16763 80.9813 5.00095 79.3146 5.00091L73.5001 5.00079C71.8335 5.00076 71.0001 4.16741 71.0002 2.50074C71.0002 0.834075 71.8336 0.000759125 73.5002 0.000793695ZM88.6791 0.00099802L94.4764 0.000988722C96.1431 0.000986099 96.9764 0.834318 96.9764 2.50098C96.9764 4.16765 96.1431 5.00099 94.4764 5.00099L88.6791 5.001C87.0124 5.001 86.1791 4.16767 86.1791 2.501C86.1791 0.834335 87.0124 0.00100064 88.6791 0.00099802ZM103.895 0.000879526L109.78 0.000753641C111.446 0.000718117 112.28 0.834033 112.28 2.5007C112.28 4.16737 111.446 5.00072 109.78 5.00075L103.896 5.00088C102.229 5.00092 101.396 4.1676 101.396 2.50093C101.395 0.834266 102.229 0.000915051 103.895 0.000879526ZM119.348 0.000447512L122 0.000333309C123.667 0.000261545 124.5 0.833559 124.5 2.50023C124.5 4.16689 123.667 5.00026 122 5.00033L119.348 5.00045C117.682 5.00052 116.848 4.16722 116.848 2.50056C116.848 0.833889 117.682 0.000519276 119.348 0.000447512Z" fill="rgb(255,255,255)" fill-rule="nonzero" />
</svg>
