<svg width="178" height="54" viewBox="0 0 178 54" fill="none" xmlns="http://www.w3.org/2000/svg">
<g filter="url(#filter0_d_95_10)">
<path d="M58.6853 38C57.6219 38 56.7603 37.67 56.1003 37.01C55.4403 36.35 55.1103 35.4883 55.1103 34.425V17.815C55.1103 17.1183 55.3486 16.55 55.8253 16.11C56.3019 15.67 56.9069 15.45 57.6403 15.45C58.3369 15.45 58.9053 15.67 59.3453 16.11C59.8219 16.55 60.0603 17.1183 60.0603 17.815V31.84C60.0603 32.94 60.6103 33.49 61.7103 33.49H66.6053C67.2653 33.49 67.7969 33.71 68.2003 34.15C68.6403 34.5533 68.8603 35.085 68.8603 35.745C68.8603 36.405 68.6403 36.955 68.2003 37.395C67.7969 37.7983 67.2653 38 66.6053 38H58.6853ZM74.7139 38.55C74.0172 38.55 73.4306 38.3483 72.9539 37.945C72.4772 37.5417 72.2389 37.0283 72.2389 36.405V23.92C72.2389 23.3333 72.4589 22.8383 72.8989 22.435C73.3756 21.995 73.9806 21.775 74.7139 21.775C75.4472 21.775 76.0156 21.995 76.4189 22.435C76.8589 22.8383 77.0789 23.3517 77.0789 23.975V36.35C77.0789 36.9733 76.8406 37.505 76.3639 37.945C75.9239 38.3483 75.3739 38.55 74.7139 38.55ZM74.7139 19.025C73.9439 19.025 73.2839 18.7867 72.7339 18.31C72.1839 17.7967 71.9089 17.155 71.9089 16.385C71.9089 15.6883 72.1839 15.0833 72.7339 14.57C73.2839 14.0567 73.9439 13.8 74.7139 13.8C75.4472 13.8 76.0706 14.0567 76.5839 14.57C77.1339 15.0833 77.4089 15.6883 77.4089 16.385C77.4089 17.155 77.1339 17.7967 76.5839 18.31C76.0706 18.7867 75.4472 19.025 74.7139 19.025ZM95.3346 38.55C94.6379 38.55 94.0513 38.3483 93.5746 37.945C93.1346 37.5417 92.9146 37.0283 92.9146 36.405V29.695C92.9146 28.3383 92.6029 27.3667 91.9796 26.78C91.3929 26.1933 90.6596 25.9 89.7796 25.9C88.8629 25.9 88.0929 26.1933 87.4696 26.78C86.8829 27.3667 86.5163 28.045 86.3696 28.815V36.185C86.3696 36.8083 86.1313 37.34 85.6546 37.78C85.2146 38.1833 84.6646 38.385 84.0046 38.385C83.3079 38.385 82.7213 38.1833 82.2446 37.78C81.7679 37.3767 81.5296 36.8633 81.5296 36.24V23.92C81.5296 23.3333 81.7496 22.8383 82.1896 22.435C82.6663 21.995 83.2713 21.775 84.0046 21.775C84.5913 21.775 85.0863 21.94 85.4896 22.27C85.8929 22.5633 86.1679 22.9483 86.3146 23.425C87.3046 22.1417 88.8079 21.5 90.8246 21.5C92.8779 21.5 94.5463 22.105 95.8296 23.315C97.1129 24.525 97.7546 26.45 97.7546 29.09V36.515C97.7546 37.1017 97.5163 37.5967 97.0396 38C96.5996 38.3667 96.0313 38.55 95.3346 38.55ZM108.816 45.975C107.789 45.975 106.799 45.865 105.846 45.645C104.893 45.4617 104.031 45.1683 103.261 44.765C102.381 44.2883 101.941 43.555 101.941 42.565C101.941 41.9417 102.161 41.3917 102.601 40.915C103.041 40.475 103.554 40.255 104.141 40.255C104.618 40.255 105.039 40.365 105.406 40.585C105.993 40.915 106.598 41.1533 107.221 41.3C107.881 41.4467 108.523 41.52 109.146 41.52C110.539 41.52 111.566 41.2083 112.226 40.585C112.923 39.9617 113.271 39.1367 113.271 38.11V36.845C112.098 37.9817 110.649 38.55 108.926 38.55C106.469 38.55 104.489 37.78 102.986 36.24C101.519 34.6633 100.786 32.5733 100.786 29.97C100.786 27.3667 101.501 25.3133 102.931 23.81C104.398 22.27 106.341 21.5 108.761 21.5C110.521 21.5 112.043 22.1783 113.326 23.535C113.436 23.0217 113.693 22.6 114.096 22.27C114.536 21.94 115.068 21.775 115.691 21.775C116.424 21.775 117.011 21.995 117.451 22.435C117.891 22.875 118.111 23.425 118.111 24.085V38.22C118.111 40.5667 117.286 42.4367 115.636 43.83C114.023 45.26 111.749 45.975 108.816 45.975ZM109.311 34.095C110.411 34.095 111.291 33.71 111.951 32.94C112.648 32.1333 112.996 31.1433 112.996 29.97C112.996 28.76 112.648 27.7883 111.951 27.055C111.291 26.3217 110.411 25.955 109.311 25.955C108.174 25.955 107.258 26.3217 106.561 27.055C105.901 27.7883 105.571 28.76 105.571 29.97C105.571 31.1433 105.901 32.1333 106.561 32.94C107.258 33.71 108.174 34.095 109.311 34.095ZM129.564 38.55C127.987 38.55 126.539 38.1833 125.219 37.45C123.899 36.7167 122.836 35.7083 122.029 34.425C121.259 33.105 120.874 31.62 120.874 29.97C120.874 28.2833 121.259 26.8167 122.029 25.57C122.836 24.2867 123.899 23.2967 125.219 22.6C126.539 21.8667 127.987 21.5 129.564 21.5C131.177 21.5 132.626 21.8667 133.909 22.6C135.229 23.2967 136.274 24.2867 137.044 25.57C137.814 26.8167 138.199 28.2833 138.199 29.97C138.199 31.62 137.814 33.105 137.044 34.425C136.274 35.7083 135.229 36.7167 133.909 37.45C132.626 38.1833 131.177 38.55 129.564 38.55ZM129.564 34.095C130.701 34.095 131.617 33.71 132.314 32.94C133.047 32.1333 133.414 31.1433 133.414 29.97C133.414 28.76 133.047 27.7883 132.314 27.055C131.617 26.3217 130.701 25.955 129.564 25.955C128.464 25.955 127.529 26.3217 126.759 27.055C126.026 27.7883 125.659 28.76 125.659 29.97C125.659 31.1433 126.026 32.1333 126.759 32.94C127.529 33.71 128.464 34.095 129.564 34.095Z" fill="black"/>
<path d="M144.55 38.55C143.853 38.55 143.266 38.33 142.79 37.89C142.313 37.45 142.075 36.9 142.075 36.24V17.815C142.075 17.1183 142.313 16.55 142.79 16.11C143.266 15.67 143.853 15.45 144.55 15.45C145.283 15.45 145.87 15.67 146.31 16.11C146.786 16.55 147.025 17.1183 147.025 17.815V36.24C147.025 36.9367 146.786 37.505 146.31 37.945C145.87 38.3483 145.283 38.55 144.55 38.55ZM171.083 40.2C170.497 40.2 169.983 39.98 169.543 39.54L167.563 37.45C166.06 38.1833 164.428 38.55 162.668 38.55C160.505 38.55 158.543 38.0367 156.783 37.01C155.06 35.9467 153.685 34.5167 152.658 32.72C151.668 30.9233 151.173 28.9433 151.173 26.78C151.173 24.5433 151.668 22.5633 152.658 20.84C153.685 19.08 155.06 17.705 156.783 16.715C158.507 15.6883 160.468 15.175 162.668 15.175C164.868 15.175 166.812 15.6883 168.498 16.715C170.222 17.705 171.56 19.08 172.513 20.84C173.503 22.5633 173.998 24.5433 173.998 26.78C173.998 28.2833 173.76 29.695 173.283 31.015C172.807 32.2983 172.147 33.4533 171.303 34.48L172.788 35.855C173.375 36.4417 173.668 37.0467 173.668 37.67C173.668 38.3667 173.467 38.9167 173.063 39.32C172.477 39.9067 171.817 40.2 171.083 40.2ZM162.668 34.15C163.182 34.15 163.677 34.095 164.153 33.985L163.218 33.105C162.632 32.5917 162.338 31.95 162.338 31.18C162.338 30.52 162.54 29.9883 162.943 29.585C163.457 29.0717 164.08 28.815 164.813 28.815C165.473 28.815 166.023 29.035 166.463 29.475L167.948 31.125C168.682 29.8783 169.048 28.43 169.048 26.78C169.048 24.6533 168.443 22.9117 167.233 21.555C166.06 20.1983 164.538 19.52 162.668 19.52C160.762 19.52 159.185 20.1983 157.938 21.555C156.728 22.9117 156.123 24.6533 156.123 26.78C156.123 28.9067 156.728 30.6667 157.938 32.06C159.185 33.4533 160.762 34.15 162.668 34.15Z" fill="white"/>
</g>
<g filter="url(#filter1_d_95_10)">
<path d="M47.5938 19.6875C47.5915 17.7682 47.0668 15.8856 46.0758 14.2419C45.0849 12.5981 43.6651 11.2552 41.9688 10.3572V9.14063C41.9696 7.26045 41.3903 5.42579 40.31 3.88695C39.2297 2.34811 37.701 1.18002 35.9324 0.542048C34.1637 -0.0959257 32.2413 -0.172719 30.4274 0.322144C28.6135 0.817007 26.9965 1.85943 25.7969 3.30719C24.5973 1.85943 22.9802 0.817015 21.1664 0.322149C19.3525 -0.172716 17.4301 -0.0959293 15.6614 0.542034C13.8928 1.18 12.3641 2.34807 11.2838 3.8869C10.2034 5.42573 9.62419 7.26037 9.625 9.14055V10.3572C7.92696 11.253 6.50566 12.5953 5.5144 14.2395C4.52314 15.8836 3.99951 17.7671 4 19.687C4.00049 21.6068 4.52506 23.4901 5.51716 25.1337C6.50925 26.7774 7.93122 28.119 9.62973 29.0139C9.66641 30.8777 10.2725 32.6857 11.3665 34.1951C12.4605 35.7044 13.9902 36.843 15.7501 37.4577C17.51 38.0725 19.4158 38.1341 21.2117 37.6343C23.0076 37.1345 24.6076 36.0971 25.7969 34.6616C26.9861 36.0971 28.5861 37.1345 30.382 37.6343C32.178 38.1341 34.0838 38.0725 35.8437 37.4577C37.6036 36.843 39.1332 35.7044 40.2273 34.1951C41.3213 32.6857 41.9274 30.8777 41.964 29.0139C43.6618 28.1182 45.0831 26.7764 46.0751 25.1331C47.067 23.4898 47.5921 21.607 47.5938 19.6875ZM18.7656 33.75C17.7039 33.7486 16.671 33.4044 15.8206 32.7686C14.9702 32.1329 14.3477 31.2396 14.0459 30.2217C14.2121 30.2295 14.3789 30.2344 14.5469 30.2344H15.9531C16.5126 30.2344 17.0491 30.0121 17.4447 29.6166C17.8403 29.221 18.0625 28.6844 18.0625 28.125C18.0625 27.5656 17.8403 27.029 17.4447 26.6335C17.0491 26.2379 16.5126 26.0156 15.9531 26.0156H14.5469C13.054 26.0153 11.6093 25.4873 10.468 24.5249C9.32672 23.5625 8.56233 22.2277 8.3099 20.7563C8.05746 19.285 8.33324 17.7717 9.08848 16.4839C9.84373 15.1962 11.0298 14.2168 12.4372 13.7189C12.8485 13.5735 13.2046 13.3042 13.4565 12.9481C13.7083 12.5919 13.8436 12.1664 13.8436 11.7302L13.8438 9.14063C13.8438 7.83527 14.3623 6.58337 15.2853 5.66034C16.2084 4.73731 17.4603 4.21876 18.7656 4.21876C20.071 4.21876 21.3229 4.73731 22.2459 5.66034C23.169 6.58337 23.6875 7.83527 23.6875 9.14063V21.1253C23.2842 20.8672 22.8613 20.6411 22.4227 20.4491C22.1688 20.338 21.8956 20.2781 21.6186 20.2726C21.3415 20.2672 21.0661 20.3164 20.8081 20.4175C20.5501 20.5185 20.3145 20.6694 20.1148 20.8615C19.9151 21.0536 19.7553 21.2832 19.6443 21.5371C19.5334 21.791 19.4736 22.0643 19.4683 22.3413C19.463 22.6184 19.5123 22.8937 19.6135 23.1517C19.7147 23.4097 19.8657 23.6452 20.0579 23.8447C20.2501 24.0443 20.4798 24.2041 20.7337 24.3149C21.7702 24.7673 22.6194 25.5627 23.1384 26.5675C23.6574 27.5723 23.8147 28.7251 23.5838 29.8322C23.3528 30.9393 22.7478 31.9331 21.8703 32.6466C20.9929 33.3601 19.8965 33.7497 18.7656 33.75ZM37.0469 26.0156H35.6406C35.0812 26.0156 34.5447 26.2379 34.1491 26.6335C33.7535 27.029 33.5313 27.5656 33.5313 28.125C33.5313 28.6844 33.7535 29.221 34.1491 29.6166C34.5447 30.0121 35.0812 30.2344 35.6406 30.2344H37.0469C37.2149 30.2344 37.3817 30.2295 37.5479 30.2217C37.3133 31.0151 36.8824 31.7367 36.2951 32.3195C35.7078 32.9024 34.9831 33.3278 34.1879 33.5564C33.3927 33.785 32.5526 33.8094 31.7455 33.6274C30.9383 33.4454 30.1901 33.0628 29.5699 32.5151C28.9497 31.9674 28.4777 31.2721 28.1973 30.4936C27.917 29.7151 27.8375 28.8786 27.9661 28.0612C28.0947 27.2438 28.4272 26.4721 28.9331 25.8173C29.4389 25.1625 30.1016 24.6458 30.86 24.3149C31.114 24.2041 31.3437 24.0443 31.5359 23.8447C31.7281 23.6452 31.8791 23.4097 31.9802 23.1517C32.0814 22.8937 32.1308 22.6184 32.1255 22.3413C32.1202 22.0643 32.0604 21.791 31.9494 21.5371C31.8385 21.2832 31.6786 21.0536 31.4789 20.8615C31.2793 20.6694 31.0437 20.5185 30.7857 20.4175C30.5276 20.3164 30.2523 20.2672 29.9752 20.2726C29.6982 20.2781 29.4249 20.338 29.1711 20.4491C28.7324 20.6411 28.3095 20.8672 27.9063 21.1253V9.14063C27.9063 8.49428 28.0336 7.85426 28.2809 7.25712C28.5283 6.65997 28.8908 6.11739 29.3479 5.66036C29.8049 5.20332 30.3475 4.84078 30.9447 4.59344C31.5418 4.3461 32.1818 4.2188 32.8282 4.2188C33.4745 4.21881 34.1145 4.34612 34.7117 4.59347C35.3088 4.84083 35.8514 5.20337 36.3085 5.66042C36.7655 6.11746 37.128 6.66005 37.3754 7.2572C37.6227 7.85435 37.75 8.49437 37.75 9.14072L37.7502 11.7302C37.7502 12.1664 37.8854 12.5919 38.1373 12.9481C38.3892 13.3042 38.7453 13.5735 39.1565 13.7189C40.5639 14.2168 41.75 15.1962 42.5053 16.4839C43.2605 17.7717 43.5363 19.285 43.2839 20.7563C43.0314 22.2277 42.2671 23.5625 41.1258 24.5249C39.9845 25.4873 38.5398 26.0153 37.0469 26.0156ZM20.875 13.3594C20.8729 15.2235 20.1314 17.0107 18.8133 18.3289C17.4951 19.6471 15.7079 20.3885 13.8438 20.3906C13.2843 20.3906 12.7478 20.1684 12.3522 19.7728C11.9566 19.3772 11.7344 18.8407 11.7344 18.2813C11.7344 17.7218 11.9566 17.1853 12.3522 16.7897C12.7478 16.3941 13.2843 16.1719 13.8438 16.1719C14.5894 16.171 15.3043 15.8744 15.8316 15.3472C16.3588 14.8199 16.6554 14.105 16.6563 13.3594V11.9531C16.6563 11.3937 16.8785 10.8572 17.2741 10.4616C17.6697 10.066 18.2062 9.84376 18.7656 9.84376C19.3251 9.84376 19.8616 10.066 20.2572 10.4616C20.6528 10.8572 20.875 11.3937 20.875 11.9531V13.3594ZM39.8594 18.2813C39.8594 18.8407 39.6371 19.3772 39.2416 19.7728C38.846 20.1684 38.3094 20.3906 37.75 20.3906C35.8859 20.3885 34.0986 19.6471 32.7805 18.3289C31.4623 17.0107 30.7209 15.2235 30.7188 13.3594V11.9531C30.7188 11.3937 30.941 10.8572 31.3366 10.4616C31.7322 10.066 32.2687 9.84376 32.8281 9.84376C33.3876 9.84376 33.9241 10.066 34.3197 10.4616C34.7153 10.8572 34.9375 11.3937 34.9375 11.9531V13.3594C34.9384 14.105 35.235 14.8199 35.7622 15.3472C36.2895 15.8744 37.0043 16.171 37.75 16.1719C38.3094 16.1719 38.846 16.3941 39.2416 16.7897C39.6371 17.1853 39.8594 17.7218 39.8594 18.2813Z" fill="url(#paint0_linear_95_10)"/>
</g>
<defs>
<filter id="filter0_d_95_10" x="51.1102" y="13.8" width="126.888" height="40.175" filterUnits="userSpaceOnUse" color-interpolation-filters="sRGB">
<feFlood flood-opacity="0" result="BackgroundImageFix"/>
<feColorMatrix in="SourceAlpha" type="matrix" values="0 0 0 0 0 0 0 0 0 0 0 0 0 0 0 0 0 0 127 0" result="hardAlpha"/>
<feOffset dy="4"/>
<feGaussianBlur stdDeviation="2"/>
<feComposite in2="hardAlpha" operator="out"/>
<feColorMatrix type="matrix" values="0 0 0 0 0 0 0 0 0 0 0 0 0 0 0 0 0 0 0.25 0"/>
<feBlend mode="normal" in2="BackgroundImageFix" result="effect1_dropShadow_95_10"/>
<feBlend mode="normal" in="SourceGraphic" in2="effect1_dropShadow_95_10" result="shape"/>
</filter>
<filter id="filter1_d_95_10" x="0" y="0" width="51.5938" height="45.9688" filterUnits="userSpaceOnUse" color-interpolation-filters="sRGB">
<feFlood flood-opacity="0" result="BackgroundImageFix"/>
<feColorMatrix in="SourceAlpha" type="matrix" values="0 0 0 0 0 0 0 0 0 0 0 0 0 0 0 0 0 0 127 0" result="hardAlpha"/>
<feOffset dy="4"/>
<feGaussianBlur stdDeviation="2"/>
<feComposite in2="hardAlpha" operator="out"/>
<feColorMatrix type="matrix" values="0 0 0 0 0 0 0 0 0 0 0 0 0 0 0 0 0 0 0.25 0"/>
<feBlend mode="normal" in2="BackgroundImageFix" result="effect1_dropShadow_95_10"/>
<feBlend mode="normal" in="SourceGraphic" in2="effect1_dropShadow_95_10" result="shape"/>
</filter>
<linearGradient id="paint0_linear_95_10" x1="25.7969" y1="0" x2="25.7969" y2="37.9688" gradientUnits="userSpaceOnUse">
<stop offset="0.134615" stop-color="#003CFF"/>
<stop offset="0.360577" stop-color="#0F58FA"/>
<stop offset="1" stop-color="#6AFFDC"/>
</linearGradient>
</defs>
</svg>
