<svg viewBox="0 0 185 55" xmlns="http://www.w3.org/2000/svg" xmlns:xlink="http://www.w3.org/1999/xlink" width="185.000000" height="55.000000" fill="none" customFrame="#000000">
	<defs>
		<g id="pixso_custom_effect_0">
			<effect x="0.000000" y="4.000000" visibility="visible" fill="rgb(0,0,0)" fill-opacity="0.25" effectType="dropShadow" stdDeviation="4" radius="0" />
		</g>
		<filter id="filter_0" width="185.000000" height="55.000000" x="0.000000" y="0.000000" filterUnits="userSpaceOnUse" customEffect="url(#pixso_custom_effect_0)" color-interpolation-filters="sRGB">
			<feFlood flood-opacity="0" result="BackgroundImageFix" />
			<feColorMatrix result="hardAlpha" in="SourceAlpha" type="matrix" values="0 0 0 0 0 0 0 0 0 0 0 0 0 0 0 0 0 0 127 0 " />
			<feOffset dx="0.000000" dy="4.000000" in="hardAlpha" />
			<feGaussianBlur stdDeviation="1.33333337" />
			<feComposite k2="-1" k3="1" in2="hardAlpha" operator="out" />
			<feColorMatrix type="matrix" values="0 0 0 0 0 0 0 0 0 0 0 0 0 0 0 0 0 0 0.25 0 " />
			<feBlend result="effect_dropShadow_1" in2="BackgroundImageFix" mode="normal" />
			<feBlend result="shape" in="SourceGraphic" in2="effect_dropShadow_1" mode="normal" />
		</filter>
		<clipPath id="clipPath_0">
			<rect width="173.000000" height="43.000000" x="6.000000" y="2.000000" fill="rgb(255,255,255)" />
		</clipPath>
		<g id="pixso_custom_effect_1">
			<effect x="0.000000" y="4.000000" visibility="visible" fill="rgb(0,0,0)" fill-opacity="0.25" effectType="dropShadow" stdDeviation="6" radius="0" />
		</g>
		<filter id="filter_1" width="132.853958" height="42.137054" x="52.146042" y="12.862946" filterUnits="userSpaceOnUse" customEffect="url(#pixso_custom_effect_1)" color-interpolation-filters="sRGB">
			<feFlood flood-opacity="0" result="BackgroundImageFix" />
			<feColorMatrix result="hardAlpha" in="SourceAlpha" type="matrix" values="0 0 0 0 0 0 0 0 0 0 0 0 0 0 0 0 0 0 127 0 " />
			<feOffset dx="0.000000" dy="4.000000" in="hardAlpha" />
			<feGaussianBlur stdDeviation="2" />
			<feComposite k2="-1" k3="1" in2="hardAlpha" operator="out" />
			<feColorMatrix type="matrix" values="0 0 0 0 0 0 0 0 0 0 0 0 0 0 0 0 0 0 0.25 0 " />
			<feBlend result="effect_dropShadow_1" in2="BackgroundImageFix" mode="normal" />
			<feBlend result="shape" in="SourceGraphic" in2="effect_dropShadow_1" mode="normal" />
		</filter>
		<g id="pixso_custom_effect_2">
			<effect x="0.000000" y="4.000000" visibility="visible" fill="rgb(0,0,0)" fill-opacity="0.25" effectType="dropShadow" stdDeviation="6" radius="0" />
		</g>
		<filter id="filter_2" width="56.314789" height="47.563812" x="0.000000" y="0.000000" filterUnits="userSpaceOnUse" customEffect="url(#pixso_custom_effect_2)" color-interpolation-filters="sRGB">
			<feFlood flood-opacity="0" result="BackgroundImageFix" />
			<feColorMatrix result="hardAlpha" in="SourceAlpha" type="matrix" values="0 0 0 0 0 0 0 0 0 0 0 0 0 0 0 0 0 0 127 0 " />
			<feOffset dx="0.000000" dy="4.000000" in="hardAlpha" />
			<feGaussianBlur stdDeviation="2" />
			<feComposite k2="-1" k3="1" in2="hardAlpha" operator="out" />
			<feColorMatrix type="matrix" values="0 0 0 0 0 0 0 0 0 0 0 0 0 0 0 0 0 0 0.25 0 " />
			<feBlend result="effect_dropShadow_1" in2="BackgroundImageFix" mode="normal" />
			<feBlend result="shape" in="SourceGraphic" in2="effect_dropShadow_1" mode="normal" />
		</filter>
		<linearGradient id="paint_linear_0" x1="28.1573963" x2="28.1573963" y1="2" y2="37.5638695" gradientUnits="userSpaceOnUse">
			<stop stop-color="rgb(0,60,255)" offset="0.134615004" stop-opacity="1" />
			<stop stop-color="rgb(15,88,250)" offset="0.360576987" stop-opacity="1" />
			<stop stop-color="rgb(106,255,220)" offset="1" stop-opacity="1" />
		</linearGradient>
	</defs>
	<g id="lingoiq_logo 1" filter="url(#filter_0)" customFrame="url(#clipPath_0)">
		<rect id="lingoiq_logo 1" width="173.000000" height="43.000000" x="6.000000" y="2.000000" />
		<g id="Group 2">
			<g id="Сочетание 1" filter="url(#filter_1)">
				<path id="Форма 1" d="M61.7802 37.5301C60.6992 37.5301 59.8233 37.221 59.1524 36.6028C58.4815 35.9846 58.146 35.1775 58.146 34.1816L58.146 18.6236C58.146 17.9711 58.3883 17.4388 58.8729 17.0266C59.3573 16.6145 59.9724 16.4084 60.7179 16.4084C61.426 16.4084 62.0038 16.6145 62.4511 17.0266C62.9356 17.4388 63.1779 17.9711 63.1779 18.6236L63.1779 31.7603C63.1779 32.7906 63.737 33.3058 64.8552 33.3058L69.8312 33.3058C70.5021 33.3058 71.0425 33.5119 71.4525 33.924C71.8998 34.3017 72.1235 34.7998 72.1235 35.418C72.1235 36.0362 71.8998 36.5513 71.4525 36.9634C71.0425 37.3412 70.5021 37.5301 69.8312 37.5301L61.7802 37.5301ZM78.0739 38.0453C77.3656 38.0453 76.7693 37.8564 76.2848 37.4786C75.8002 37.1009 75.5579 36.62 75.5579 36.0362L75.5579 24.3419C75.5579 23.7924 75.7816 23.3288 76.2289 22.951C76.7134 22.5389 77.3284 22.3328 78.0739 22.3328C78.8193 22.3328 79.3971 22.5389 79.8071 22.951C80.2543 23.3288 80.478 23.8096 80.478 24.3935L80.478 35.9846C80.478 36.5685 80.2357 37.0665 79.7512 37.4786C79.3039 37.8564 78.7448 38.0453 78.0739 38.0453ZM78.0739 19.757C77.2911 19.757 76.6202 19.5338 76.0611 19.0873C75.502 18.6065 75.2225 18.0054 75.2225 17.2842C75.2225 16.6316 75.502 16.065 76.0611 15.5842C76.6202 15.1034 77.2911 14.8629 78.0739 14.8629C78.8193 14.8629 79.453 15.1034 79.9748 15.5842C80.5339 16.065 80.8134 16.6316 80.8134 17.2842C80.8134 18.0054 80.5339 18.6065 79.9748 19.0873C79.453 19.5338 78.8193 19.757 78.0739 19.757ZM99.0356 38.0453C98.3274 38.0453 97.7311 37.8564 97.2465 37.4786C96.7992 37.1009 96.5756 36.62 96.5756 36.0362L96.5756 29.7512C96.5756 28.4804 96.2587 27.5703 95.6251 27.0208C95.0287 26.4713 94.2833 26.1965 93.3887 26.1965C92.4569 26.1965 91.6741 26.4713 91.0405 27.0208C90.4441 27.5703 90.0715 28.2057 89.9223 28.9269L89.9223 35.8301C89.9223 36.4139 89.6801 36.9119 89.1955 37.3241C88.7482 37.7018 88.1891 37.8907 87.5182 37.8907C86.81 37.8907 86.2137 37.7018 85.7291 37.3241C85.2445 36.9463 85.0023 36.4654 85.0023 35.8816L85.0023 24.3419C85.0023 23.7924 85.2259 23.3288 85.6732 22.951C86.1578 22.5389 86.7728 22.3328 87.5182 22.3328C88.1146 22.3328 88.6178 22.4874 89.0278 22.7965C89.4377 23.0712 89.7173 23.4318 89.8664 23.8783C90.8728 22.6763 92.401 22.0752 94.451 22.0752C96.5383 22.0752 98.2343 22.6419 99.5388 23.7753C100.843 24.9086 101.496 26.7117 101.496 29.1845L101.496 36.1392C101.496 36.6887 101.253 37.1524 100.769 37.5301C100.322 37.8736 99.7438 38.0453 99.0356 38.0453ZM112.74 45C111.696 45 110.69 44.897 109.721 44.6909C108.752 44.5192 107.876 44.2444 107.093 43.8666C106.199 43.4201 105.751 42.7333 105.751 41.806C105.751 41.2222 105.975 40.707 106.422 40.2605C106.869 39.8484 107.391 39.6423 107.988 39.6423C108.473 39.6423 108.901 39.7453 109.274 39.9514C109.87 40.2605 110.485 40.4837 111.119 40.6211C111.79 40.7585 112.442 40.8272 113.075 40.8272C114.491 40.8272 115.535 40.5352 116.206 39.9514C116.915 39.3676 117.269 38.5948 117.269 37.6332L117.269 36.4483C116.076 37.513 114.603 38.0453 112.852 38.0453C110.354 38.0453 108.341 37.3241 106.814 35.8816C105.322 34.4048 104.577 32.4472 104.577 30.0087C104.577 27.5703 105.304 25.647 106.758 24.2389C108.249 22.7965 110.224 22.0752 112.684 22.0752C114.473 22.0752 116.02 22.7106 117.325 23.9813C117.436 23.5005 117.698 23.1056 118.107 22.7965C118.555 22.4874 119.095 22.3328 119.729 22.3328C120.474 22.3328 121.071 22.5389 121.518 22.951C121.965 23.3631 122.189 23.8783 122.189 24.4965L122.189 37.7362C122.189 39.9342 121.35 41.6858 119.673 42.9909C118.033 44.3303 115.721 45 112.74 45ZM113.243 33.8725C114.361 33.8725 115.256 33.5119 115.927 32.7906C116.635 32.035 116.989 31.1077 116.989 30.0087C116.989 28.8754 116.635 27.9652 115.927 27.2784C115.256 26.5915 114.361 26.2481 113.243 26.2481C112.087 26.2481 111.156 26.5915 110.448 27.2784C109.777 27.9652 109.441 28.8754 109.441 30.0087C109.441 31.1077 109.777 32.035 110.448 32.7906C111.156 33.5119 112.087 33.8725 113.243 33.8725ZM133.831 38.0453C132.228 38.0453 130.756 37.7018 129.414 37.015C128.072 36.3281 126.992 35.3836 126.171 34.1816C125.389 32.9452 124.997 31.5542 124.997 30.0087C124.997 28.4289 125.389 27.0552 126.171 25.8874C126.992 24.6854 128.072 23.7581 129.414 23.1056C130.756 22.4187 132.228 22.0752 133.831 22.0752C135.471 22.0752 136.944 22.4187 138.248 23.1056C139.59 23.7581 140.652 24.6854 141.435 25.8874C142.218 27.0552 142.609 28.4289 142.609 30.0087C142.609 31.5542 142.218 32.9452 141.435 34.1816C140.652 35.3836 139.59 36.3281 138.248 37.015C136.944 37.7018 135.471 38.0453 133.831 38.0453ZM133.831 33.8725C134.987 33.8725 135.918 33.5119 136.627 32.7906C137.372 32.035 137.745 31.1077 137.745 30.0087C137.745 28.8754 137.372 27.9652 136.627 27.2784C135.918 26.5915 134.987 26.2481 133.831 26.2481C132.713 26.2481 131.762 26.5915 130.98 27.2784C130.235 27.9652 129.862 28.8754 129.862 30.0087C129.862 31.1077 130.235 32.035 130.98 32.7906C131.762 33.5119 132.713 33.8725 133.831 33.8725Z" fill="rgb(0,0,0)" fill-rule="nonzero" />
				<path id="Форма 2" d="M149.065 38.0453C148.356 38.0453 147.76 37.8393 147.276 37.4271C146.791 37.015 146.549 36.4998 146.549 35.8816L146.549 18.6237C146.549 17.9711 146.791 17.4388 147.276 17.0267C147.76 16.6145 148.356 16.4085 149.065 16.4085C149.81 16.4085 150.407 16.6145 150.854 17.0267C151.338 17.4388 151.581 17.9711 151.581 18.6237L151.581 35.8816C151.581 36.5342 151.338 37.0665 150.854 37.4786C150.407 37.8564 149.81 38.0453 149.065 38.0453ZM176.037 39.5908C175.441 39.5908 174.919 39.3847 174.471 38.9726L172.459 37.015C170.931 37.7018 169.272 38.0453 167.483 38.0453C165.284 38.0453 163.289 37.5645 161.5 36.6029C159.749 35.6069 158.351 34.2675 157.307 32.5846C156.301 30.9017 155.797 29.0471 155.797 27.0208C155.797 24.9258 156.301 23.0712 157.307 21.4571C158.351 19.8085 159.749 18.5206 161.5 17.5933C163.253 16.6317 165.246 16.1509 167.483 16.1509C169.719 16.1509 171.695 16.6317 173.409 17.5933C175.162 18.5206 176.522 19.8085 177.49 21.4571C178.497 23.0712 179 24.9258 179 27.0208C179 28.4289 178.758 29.7512 178.273 30.9876C177.789 32.1896 177.118 33.2714 176.26 34.2331L177.77 35.521C178.367 36.0706 178.665 36.6372 178.665 37.2211C178.665 37.8736 178.46 38.3888 178.05 38.7665C177.454 39.3161 176.783 39.5908 176.037 39.5908ZM167.483 33.924C168.005 33.924 168.508 33.8725 168.992 33.7695L168.042 32.9452C167.446 32.4644 167.147 31.8634 167.147 31.1421C167.147 30.5239 167.352 30.0259 167.762 29.6482C168.285 29.1674 168.918 28.9269 169.663 28.9269C170.334 28.9269 170.893 29.133 171.34 29.5451L172.85 31.0906C173.596 29.9229 173.968 28.5663 173.968 27.0208C173.968 25.0288 173.353 23.3975 172.123 22.1268C170.931 20.856 169.384 20.2207 167.483 20.2207C165.545 20.2207 163.942 20.856 162.674 22.1268C161.444 23.3975 160.829 25.0288 160.829 27.0208C160.829 29.0128 161.444 30.6613 162.674 31.9664C163.942 33.2714 165.545 33.924 167.483 33.924Z" fill="rgb(255,255,255)" fill-rule="nonzero" />
			</g>
			<g id="Сочетание 2" filter="url(#filter_2)">
				<path id="Форма 3" d="M50.3148 20.4405C50.3125 18.6428 49.7791 16.8794 48.7717 15.3398C47.7644 13.8001 46.3211 12.5423 44.5968 11.7012L44.5968 10.5617C44.5976 8.80058 44.0087 7.08212 42.9105 5.64075C41.8124 4.19938 40.2584 3.10528 38.4605 2.50771C36.6626 1.91015 34.7084 1.83822 32.8645 2.30174C31.0206 2.76526 29.3768 3.74165 28.1574 5.09771C26.938 3.74165 25.2941 2.76527 23.4503 2.30174C21.6064 1.83822 19.6522 1.91015 17.8543 2.5077C16.0564 3.10526 14.5024 4.19934 13.4043 5.64071C12.306 7.08207 11.7172 8.8005 11.718 10.5616L11.718 11.7012C9.99191 12.5402 8.5471 13.7975 7.53945 15.3376C6.53179 16.8775 5.9995 18.6417 6 20.44C6.0005 22.2382 6.53375 24.0022 7.54225 25.5417C8.55075 27.0813 9.99624 28.338 11.7228 29.1762C11.7601 30.9219 12.3762 32.6154 13.4883 34.0292C14.6004 35.4429 16.1554 36.5094 17.9444 37.0851C19.7334 37.661 21.6708 37.7187 23.4964 37.2506C25.322 36.7824 26.9484 35.8107 28.1574 34.4661C29.3663 35.8107 30.9927 36.7824 32.8183 37.2506C34.644 37.7187 36.5814 37.661 38.3704 37.0851C40.1594 36.5094 41.7143 35.4429 42.8265 34.0292C43.9386 32.6154 44.5547 30.9219 44.5919 29.1762C46.3178 28.3372 47.7626 27.0804 48.771 25.5412C49.7793 24.002 50.3131 22.2384 50.3148 20.4405ZM21.0098 33.6123C19.9305 33.611 18.8806 33.2886 18.0161 32.693C17.1516 32.0976 16.5188 31.2609 16.2121 30.3075C16.381 30.3148 16.5506 30.3194 16.7213 30.3194L18.1508 30.3194C18.7195 30.3194 19.2649 30.1111 19.6671 29.7407C20.0692 29.3702 20.2951 28.8675 20.2951 28.3436C20.2951 27.8196 20.0692 27.317 19.6671 26.9465C19.2649 26.576 18.7195 26.3678 18.1508 26.3678L16.7213 26.3678C15.2037 26.3675 13.7352 25.8729 12.575 24.9715C11.4148 24.0701 10.6378 22.8198 10.3812 21.4416C10.1246 20.0635 10.4049 18.646 11.1726 17.4398C11.9404 16.2337 13.1461 15.3163 14.5767 14.8499C14.9948 14.7138 15.3568 14.4615 15.6129 14.128C15.8689 13.7943 16.0064 13.3958 16.0064 12.9872L16.0066 10.5617C16.0066 9.33899 16.5337 8.16638 17.4719 7.30182C18.4103 6.43725 19.6829 5.95155 21.0098 5.95155C22.3368 5.95155 23.6094 6.43725 24.5477 7.30182C25.486 8.16638 26.0131 9.33899 26.0131 10.5617L26.0131 21.7872C25.6031 21.5455 25.1732 21.3337 24.7274 21.1539C24.4693 21.0498 24.1916 20.9937 23.91 20.9885C23.6283 20.9835 23.3484 21.0296 23.0861 21.1243C22.8238 21.2189 22.5843 21.3602 22.3813 21.5401C22.1783 21.7201 22.0159 21.9351 21.903 22.1729C21.7903 22.4108 21.7295 22.6668 21.7241 22.9262C21.7187 23.1858 21.7689 23.4436 21.8717 23.6853C21.9746 23.9269 22.1281 24.1475 22.3235 24.3344C22.5189 24.5213 22.7524 24.671 23.0105 24.7748C24.0641 25.1985 24.9273 25.9436 25.4549 26.8847C25.9825 27.8259 26.1424 28.9057 25.9077 29.9426C25.6729 30.9796 25.0579 31.9105 24.1659 32.5788C23.2739 33.2471 22.1594 33.612 21.0098 33.6123ZM39.5935 26.3678L38.1639 26.3678C37.5952 26.3678 37.0499 26.576 36.6477 26.9465C36.2456 27.317 36.0197 27.8196 36.0197 28.3436C36.0197 28.8675 36.2456 29.3702 36.6477 29.7407C37.0499 30.1111 37.5952 30.3194 38.1639 30.3194L39.5935 30.3194C39.7642 30.3194 39.9338 30.3148 40.1027 30.3075C39.8643 31.0506 39.4262 31.7265 38.8292 32.2724C38.2322 32.8184 37.4955 33.2168 36.6872 33.431C35.8788 33.6451 35.0248 33.6679 34.2044 33.4975C33.3838 33.327 32.6233 32.9686 31.9928 32.4556C31.3623 31.9426 30.8825 31.2913 30.5975 30.5621C30.3126 29.833 30.2317 29.0494 30.3625 28.2838C30.4932 27.5182 30.8312 26.7954 31.3455 26.182C31.8596 25.5687 32.5333 25.0847 33.3042 24.7748C33.5624 24.671 33.7959 24.5213 33.9913 24.3344C34.1867 24.1475 34.3402 23.9269 34.443 23.6853C34.5458 23.4436 34.5961 23.1858 34.5907 22.9262C34.5853 22.6668 34.5245 22.4108 34.4117 22.1729C34.2989 21.9351 34.1364 21.7201 33.9334 21.5401C33.7305 21.3602 33.491 21.2189 33.2287 21.1243C32.9663 21.0296 32.6865 20.9835 32.4048 20.9885C32.1232 20.9937 31.8454 21.0498 31.5874 21.1539C31.1414 21.3337 30.7116 21.5455 30.3017 21.7872L30.3017 10.5617C30.3017 9.95625 30.4311 9.35677 30.6825 8.79746C30.934 8.23813 31.3025 7.72992 31.7671 7.30183C32.2317 6.87374 32.7833 6.53417 33.3903 6.30249C33.9973 6.07082 34.6479 5.95158 35.305 5.95158C35.962 5.95159 36.6126 6.07084 37.2196 6.30252C37.8266 6.53421 38.3782 6.87379 38.8428 7.30189C39.3074 7.72998 39.6759 8.2382 39.9274 8.79753C40.1788 9.35686 40.3082 9.95634 40.3082 10.5618L40.3084 12.9872C40.3084 13.3958 40.4458 13.7943 40.7019 14.128C40.958 14.4615 41.3199 14.7138 41.7379 14.8499C43.1686 15.3163 44.3743 16.2337 45.1421 17.4398C45.9098 18.646 46.1902 20.0635 45.9336 21.4416C45.6769 22.8198 44.9 24.0701 43.7398 24.9715C42.5796 25.8729 41.111 26.3675 39.5935 26.3678ZM23.1541 14.5132C23.152 16.2592 22.3982 17.9332 21.0583 19.168C19.7183 20.4027 17.9015 21.0971 16.0066 21.0991C15.4379 21.0991 14.8925 20.8909 14.4903 20.5204C14.0882 20.1499 13.8623 19.6473 13.8623 19.1234C13.8623 18.5993 14.0882 18.0968 14.4903 17.7262C14.8925 17.3557 15.4379 17.1476 16.0066 17.1476C16.7645 17.1467 17.4913 16.8689 18.0273 16.3751C18.5632 15.8812 18.8647 15.2116 18.8656 14.5132L18.8656 13.196C18.8656 12.672 19.0915 12.1695 19.4936 11.799C19.8958 11.4284 20.4412 11.2203 21.0098 11.2203C21.5786 11.2203 22.1239 11.4284 22.5261 11.799C22.9282 12.1695 23.1541 12.672 23.1541 13.196L23.1541 14.5132ZM42.4525 19.1234C42.4525 19.6473 42.2265 20.1499 41.8245 20.5204C41.4223 20.8909 40.8768 21.0991 40.3082 21.0991C38.4133 21.0971 36.5964 20.4027 35.2565 19.168C33.9165 17.9332 33.1628 16.2592 33.1607 14.5132L33.1607 13.196C33.1607 12.672 33.3866 12.1695 33.7887 11.799C34.1909 11.4284 34.7362 11.2203 35.3049 11.2203C35.8736 11.2203 36.419 11.4284 36.8212 11.799C37.2233 12.1695 37.4492 12.672 37.4492 13.196L37.4492 14.5132C37.4501 15.2116 37.7516 15.8812 38.2875 16.3751C38.8235 16.8689 39.5502 17.1467 40.3082 17.1476C40.8768 17.1476 41.4223 17.3557 41.8245 17.7262C42.2265 18.0968 42.4525 18.5993 42.4525 19.1234Z" fill="url(#paint_linear_0)" fill-rule="nonzero" />
			</g>
		</g>
	</g>
</svg>
